<?xml version="1.0" encoding="UTF-8"?><svg id="Layer_2" xmlns="http://www.w3.org/2000/svg" viewBox="0 0 226 226"><defs><style>.cls-1{fill:#374151;}</style></defs><g id="Layer_1-2"><path class="cls-1" d="M200.03,0H25.97C11.63,0,0,11.63,0,25.97V200.03c0,14.35,11.63,25.97,25.97,25.97H200.03c14.35,0,25.97-11.63,25.97-25.97V25.97c0-14.35-11.63-25.97-25.97-25.97Zm1.97,193.72c0,4.57-3.71,8.28-8.28,8.28H32.28c-4.57,0-8.28-3.71-8.28-8.28V32.28c0-4.57,3.71-8.28,8.28-8.28H193.72c4.57,0,8.28,3.71,8.28,8.28V193.72Z"/><path class="cls-1" d="M113,88.46h40.02c4.92,0,8,3.19,5.54,5.73l-20.01,20.72-20.01,20.72c-2.46,2.55-8.61,2.55-11.07,0l-20.01-20.72-20.01-20.72c-2.46-2.55,.62-5.73,5.54-5.73h40.02Z"/></g></svg>